<svg id="Layer_1" data-name="Layer 1" xmlns="http://www.w3.org/2000/svg" viewBox="0 0 703.66 703.66"><defs><style>.cls-1{fill:#d42886;}.cls-2{fill:#fcfcfc;}</style></defs><path class="cls-1" d="M133.79,0H575.13A128.53,128.53,0,0,1,703.66,128.53v446.6A128.53,128.53,0,0,1,575.13,703.66H128.53A128.53,128.53,0,0,1,0,575.13V133.79A133.79,133.79,0,0,1,133.79,0Z"/><path class="cls-2" d="M319.71,421.59l46.17-54.31a36.91,36.91,0,0,1,28.11-13H646.6A44.66,44.66,0,0,1,678,367.18l40.16,39.68a13.66,13.66,0,0,1,.25,19.19L695.86,449.5a60.14,60.14,0,0,1-86.56.19h0a13.61,13.61,0,0,0-10-4.16l-28.89.46a13.67,13.67,0,0,0-13.45,13.66V605.44a13.68,13.68,0,0,1-3.74,9.4l-62.83,66.37c-10.26,10.84-28.48,3.61-28.52-11.31l-.61-213.4a13.66,13.66,0,0,0-13.4-13.62l-119.58-2.33A11.51,11.51,0,0,1,319.71,421.59Z" transform="translate(-188.17 -160.35)"/><path class="cls-2" d="M591.22,561.78v8.05a34,34,0,0,0,9.84,23.94l90.76,91.82C703,696.88,722.2,689,722.2,673.11v-51.6a24.57,24.57,0,0,0-7.11-17.3L649.5,537.84C628.1,516.2,591.22,531.35,591.22,561.78Z" transform="translate(-188.17 -160.35)"/></svg>