<svg id="Layer_1" data-name="Layer 1" xmlns="http://www.w3.org/2000/svg" viewBox="0 0 703.66 703.66"><defs><style>.cls-1{fill:#000012;}.cls-2{fill:#0303f2;}</style></defs><path class="cls-1" d="M133.79,0H575.13A128.53,128.53,0,0,1,703.66,128.53v446.6A128.53,128.53,0,0,1,575.13,703.66H128.53A128.53,128.53,0,0,1,0,575.13V133.79A133.79,133.79,0,0,1,133.79,0Z"/><path class="cls-2" d="M340.13,439l46.18-54.3a36.87,36.87,0,0,1,28.1-13H667a44.64,44.64,0,0,1,31.38,12.89l40.17,39.68a13.68,13.68,0,0,1,.25,19.19l-22.53,23.46a60.14,60.14,0,0,1-86.56.18h0a13.67,13.67,0,0,0-10-4.15l-28.89.45a13.67,13.67,0,0,0-13.45,13.67V622.85a13.68,13.68,0,0,1-3.74,9.39l-62.83,66.38c-10.26,10.83-28.49,3.61-28.53-11.31l-.61-213.4a13.67,13.67,0,0,0-13.4-13.63L348.68,458A11.51,11.51,0,0,1,340.13,439Z" transform="translate(-188.17 -185.92)"/><path class="cls-2" d="M611.65,579.19v8a34.07,34.07,0,0,0,9.83,23.94L712.24,703c11.16,11.28,30.39,3.38,30.39-12.48V638.91a24.63,24.63,0,0,0-7.11-17.3l-65.6-66.36C648.53,533.6,611.65,548.75,611.65,579.19Z" transform="translate(-188.17 -185.92)"/></svg>